:SAMPLES-PER-SECOND 30
:FRAME-RANGE 1-564
:FULLY-SPECIFIED
:DEGREES
18
root  89.0859 39.2993 135.465 -1.16385 -72.5978 4.21555
RightUpLeg  -0.647411 -2.71576 -0.70084
RightLeg  10.3021 -4.81134 -1.56578
RightFoot  -11.1859 -0.0768606 0.798855
RightToes  1.21801e-010 1.2921e-014 -6.02303e-014
Spine  -14.4409 -3.44846 -1.08935
Spine1  11.787 -4.15054 1.76079
HEad  16.5972 7.59009 -4.03895
LeftShoulder1  0.93768 0.577738 -28.5557
LeftArm  -2.54926 6.04636 -48.5754
LeftForeArm  34.7995 6.45475 -13.1746
LeftHand  0.02281 7.22984 3.61414
RightShoulder  2.29657 4.2791 24.213
RightArm  -37.859 1.19616 53.3717
RightForeArm  75.5415 -3.6026 -5.11001
RightHand  0.141645 -6.52435 -16.1671
LeftUpLeg  -1.43935 1.89136 -0.342549
LeftLeg  6.3006 3.63646 2.48098
LeftFoot  -6.7331 0.145562 -2.61292
LeftToes  1.70735e-010 3.74918e-011 3.68705e-011
19
root  88.9481 39.2831 135.405 -1.53621 -72.4001 4.73451
RightUpLeg  -0.662823 -2.81734 -0.72336
RightLeg  10.5042 -4.95709 -1.58383
RightFoot  -11.4736 -0.0753801 0.678966
RightToes  1.21801e-010 1.2921e-014 -6.02303e-014
Spine  -14.5428 -3.61657 -1.58841
Spine1  11.8428 -4.4598 2.50608
HEad  16.9977 7.81391 -4.21077
LeftShoulder1  0.780575 1.07792 -29.2352
LeftArm  -2.20599 6.18543 -47.8983
LeftForeArm  34.6116 6.06727 -13.2698
LeftHand  0.0160472 7.07537 3.44408
RightShoulder  2.40514 4.79033 23.6185
RightArm  -38.5041 -0.201992 52.5792
RightForeArm  75.6526 -3.53601 -5.46188
RightHand  0.226975 -7.20885 -15.66
LeftUpLeg  -1.38573 1.79213 -0.393845
LeftLeg  6.25335 3.62292 2.52774
LeftFoot  -6.83927 0.150404 -2.78169
LeftToes  1.70735e-010 3.74918e-011 3.68705e-011
20
root  88.8121 39.2569 135.332 -1.62912 -72.2517 4.86753
RightUpLeg  -0.56928 -2.71603 -0.581053
RightLeg  10.6582 -5.23936 -1.64665
RightFoot  -11.7391 -0.0774142 0.601471
RightToes  1.21801e-010 1.2921e-014 -6.02303e-014
Spine  -14.7564 -3.5758 -1.47141
Spine1  12.2822 -4.35475 2.18234
HEad  16.9644 8.57292 -4.27117
LeftShoulder1  0.818329 0.941494 -28.8009
LeftArm  -2.37308 6.52598 -47.9258
LeftForeArm  33.832 5.57524 -13.1918
LeftHand  0.0163697 6.93724 3.69959
RightShoulder  2.29029 4.28365 24.1065
RightArm  -39.5613 -0.567007 51.4201
RightForeArm  77.3826 -3.30837 -6.34291
RightHand  0.36775 -8.07695 -16.6692
LeftUpLeg  -1.40084 1.78065 -0.282725
LeftLeg  6.54172 3.47114 2.58881
LeftFoot  -7.10574 0.152604 -2.97326
LeftToes  1.70735e-010 3.74918e-011 3.68705e-011
21
root  88.6617 39.2392 135.252 -1.81234 -72.0332 5.0883
RightUpLeg  -0.359762 -2.67345 -0.379419
RightLeg  10.6672 -5.71428 -1.77912
RightFoot  -11.9854 -0.0779679 0.568427
RightToes  1.21801e-010 1.2921e-014 -6.02303e-014
Spine  -14.3575 -3.69624 -1.3491
Spine1  11.8501 -4.4906 2.20787
HEad  17.1131 7.42164 -4.61468
LeftShoulder1  0.706634 1.29572 -29.356
LeftArm  -2.18129 6.92566 -47.1675
LeftForeArm  32.9892 4.79154 -13.2068
LeftHand  0.0159831 6.82252 3.89844
RightShoulder  2.29254 4.31961 23.988
RightArm  -41.1083 -1.75429 50.6564
RightForeArm  79.4664 -3.03189 -7.40398
RightHand  0.351909 -8.12347 -15.7863
LeftUpLeg  -1.3671 1.72215 -0.169528
LeftLeg  6.76904 3.21741 2.62124
LeftFoot  -7.28547 0.1548 -3.13682
LeftToes  1.70735e-010 3.74918e-011 3.68705e-011
22
root  88.5075 39.2169 135.165 -1.85355 -71.8186 5.21553
RightUpLeg  -0.321561 -5.25547 -1.09045
RightLeg  10.9307 -3.42174 -0.246951
RightFoot  -12.3002 -0.0891261 -0.704193
RightToes  1.21801e-010 1.2921e-014 -6.02303e-014
Spine  -14.97 -3.13291 -0.674222
Spine1  12.6681 -3.46202 0.405691
HEad  17.4356 6.83981 -3.58093
LeftShoulder1  1.33528 -0.79987 -26.6569
LeftArm  -3.64547 7.77947 -48.6639
LeftForeArm  32.0945 4.767 -12.6652
LeftHand  0.012642 6.65471 4.02061
RightShoulder  1.84278 2.3456 26.6104
RightArm  -40.2348 -1.93735 48.192
RightForeArm  79.4394 -3.13036 -6.85623
RightHand  0.446644 -8.77442 -16.0175
LeftUpLeg  -1.44008 1.67174 -0.0237127
LeftLeg  7.08842 3.02294 2.6602
LeftFoot  -7.50509 0.157598 -3.36093
LeftToes  1.70735e-010 3.74918e-011 3.68705e-011
